<svg version="1.1" xmlns="http://www.w3.org/2000/svg" xmlns:xlink="http://www.w3.org/1999/xlink" x="0px" y="0px" width="100vw" height="100vh" viewBox="0 0 66.1 117.01" style="overflow:visible;enable-background:new 0 0 66.1 117.01;" xml:space="preserve">
<style type="text/css">
	.st0{fill:#FFF;}
</style>
<defs>
</defs>
<g>
	<path class="st0" d="M39.77,61.07c-3.13,0.38-5.73,1.52-7.8,3.41c-2.07,1.9-3.39,3.88-3.96,5.95L4.71,73.24L0,7.99L66.1,0
		l-0.17,21.91l-40.36,4.88l1.41,16.07c3.14-2.26,6.97-3.66,11.49-4.21c7.88-0.95,14.87-0.06,20.97,2.67c2.34,1.06,4.5,2.3,6.47,3.74
		l-0.25,62.65c-0.49,0.36-1,0.73-1.51,1.07c-6.15,4.16-13.63,6.76-22.43,7.83c-6.26,0.76-13.15,0.44-20.67-0.95
		s-14.34-3.54-20.46-6.44l11.26-20.77c5.68,2.25,10.57,3.78,14.68,4.58c4.1,0.8,8.4,0.93,12.93,0.38c5.33-0.64,9.56-2.69,12.68-6.12
		c3.11-3.44,4.37-7.7,3.75-12.8c-0.55-4.53-2.32-8.01-5.33-10.48C47.54,61.54,43.94,60.56,39.77,61.07z"></path>
</g>
</svg>